<?xml version="1.0" encoding="utf-8"?>
<!-- Generator: Adobe Illustrator 28.0.0, SVG Export Plug-In . SVG Version: 6.00 Build 0)  -->
<svg version="1.1" id="Слой_1" xmlns="http://www.w3.org/2000/svg" xmlns:xlink="http://www.w3.org/1999/xlink" x="0px" y="0px"
	 viewBox="0 0 777.7780151 1000" style="enable-background:new 0 0 777.7780151 1000;" xml:space="preserve">
<style type="text/css">
	.st0{fill-rule:evenodd;clip-rule:evenodd;fill:#CC0029;}
</style>
<path class="st0" d="M777.7736816,0v754.1508179c0.114502,11.2929077-2.0524902,22.4972534-6.3800049,32.9626465
	c-4.3273926,10.4654541-10.7268066,19.9867554-18.8286743,28.0108032
	c-8.1018066,8.0263062-17.7441406,14.397583-28.3716431,18.7444458
	c-10.6273804,4.3491211-22.0283813,6.5852661-33.5438232,6.5852661h-85.1320801
	c-93.3484497,0-152.9651794,27.3431396-228.0164185,104.4922485L324.9772339,1000V840.4539795H87.1284256
	c-11.515007,0-22.9157181-2.236145-33.5434113-6.5852661c-10.6274719-4.3468628-20.2710533-10.7181396-28.3726921-18.7444458
	c-8.1017036-8.0240479-14.5009584-17.5453491-18.8277798-28.0108032
	c-4.3268137-10.4653931-6.4953351-21.6697388-6.3801851-32.9626465V0H777.7736816z M720.5205688,56.7626686H57.2574196v697.3881226
	c-0.0164146,3.8565063,0.7440758,7.680603,2.2378426,11.2496948c1.4939842,3.5670166,3.6916351,6.8120728,6.4670029,9.5450439
	c2.7753754,2.7330322,6.0740204,4.9021606,9.7062454,6.3820801c3.632225,1.4799805,7.5267258,2.2426758,11.4599152,2.2426758
	h286.2655334v99.7305908c79.1583252-86.1821899,150.1025085-99.7305908,232.3719177-99.7305908h85.3806152
	c7.9009399-0.0648804,15.4540405-3.1976318,21.0065308-8.7111816c5.5524292-5.5135498,8.6505737-12.9586182,8.6160278-20.708313
	L720.5205688,56.7626686z"/>
</svg>
